<?xml version="1.0" encoding="utf-8"?>
<!-- Generator: Adobe Illustrator 21.0.2, SVG Export Plug-In . SVG Version: 6.00 Build 0)  -->
<svg version="1.1" xmlns="http://www.w3.org/2000/svg" xmlns:xlink="http://www.w3.org/1999/xlink" x="0px" y="0px"
	 viewBox="0 0 2500 1080" style="enable-background:new 0 0 2500 1080;" xml:space="preserve">
<style type="text/css">
	.st0{fill:#FF9900;}
</style>
<g id="Layer_1">
</g>
<g id="Layer_2">
	<path id="XMLID_817_" class="st0" d="M1157.2,507.5h46.3v-40.1h-46.3V507.5z M1180.3,470c9.5,0,17.2,7.7,17.2,17.2
		s-7.7,17.2-17.2,17.2s-17.2-7.7-17.2-17.2S1170.8,470,1180.3,470z"/>
	<path id="XMLID_820_" class="st0" d="M1180.3,501.2c7.8,0,14.1-6.3,14.1-14.1c0-7.8-6.3-14.1-14.1-14.1s-14.1,6.3-14.1,14.1
		C1166.2,494.9,1172.5,501.2,1180.3,501.2z M1180.3,474.2c7.2,0,13,5.8,13,13c0,7.2-5.8,13-13,13s-13-5.8-13-13
		C1167.3,480,1173.1,474.2,1180.3,474.2z"/>
	<polygon id="XMLID_821_" class="st0" points="1200.9,412.7 1197,412.7 1182.9,362.4 1180.2,362.4 1179.7,362.4 1177.6,362.4 
		1163,412.7 1159.9,412.7 1159.9,416.3 1200.9,416.3 	"/>
	<path id="XMLID_691_" class="st0" d="M1875,648L1875,648h-8.2l1.4-16.8c0.8-0.1,1.4-0.7,1.5-1.5c0.1-0.8-0.5-1.5-1.2-1.7l1.2-14.2
		l0.5,0c1,0.1,2-0.7,2-1.7c0.1-1-0.7-2-1.7-2l-3.3-0.3l2-24c0.7-0.1,1.3-0.6,1.3-1.3c0.1-0.7-0.4-1.4-1.1-1.5l1.1-12.9l0.5,0
		c0.9,0.1,1.8-0.6,1.9-1.6c0.1-0.9-0.6-1.8-1.6-1.9l-0.5,0l2.1-24.8c0.7-0.1,1.3-0.6,1.3-1.3c0.1-0.7-0.4-1.4-1.1-1.5l1.1-12.9
		l0.5,0c0.9,0.1,1.8-0.6,1.9-1.6c0.1-0.9-0.6-1.8-1.6-1.9l-0.5,0l2-23.5c0.7-0.1,1.3-0.6,1.3-1.3c0.1-0.7-0.4-1.4-1.1-1.5l1.1-12.9
		l0.5,0c0.9,0.1,1.8-0.6,1.9-1.6c0.1-0.9-0.6-1.8-1.6-1.9l-6.4-0.5l1.1-12.8c0.7-0.1,1.3-0.7,1.4-1.5c0.1-0.8-0.4-1.4-1.1-1.7
		l1-11.3l0.4,0c0.7,0.1,1.4-0.5,1.4-1.2c0.1-0.7-0.5-1.4-1.2-1.4l-40.8-3.5c-0.7-0.1-1.4,0.5-1.4,1.2c-0.1,0.7,0.5,1.4,1.2,1.4
		l1.3,0.1l-1,11.4c-0.7,0.2-1.2,0.7-1.2,1.4c-0.1,0.7,0.4,1.4,1,1.6l-1.1,12.8l-7.7-0.7c-0.9-0.1-1.8,0.6-1.9,1.6
		c-0.1,0.9,0.6,1.8,1.6,1.9l1.7,0.1l-1.1,12.9c-0.7,0.1-1.3,0.6-1.3,1.3c-0.1,0.7,0.4,1.3,1.1,1.5l-2,23.5l-1.7-0.1
		c-0.9-0.1-1.8,0.6-1.9,1.6c-0.1,0.9,0.6,1.8,1.6,1.9l1.7,0.1l0,0.6l0,0l-1,12.3c-0.7,0.1-1.2,0.6-1.3,1.3c-0.1,0.7,0.4,1.3,1.1,1.5
		l-2.1,24.8l-1.7-0.1c-0.9-0.1-1.8,0.6-1.9,1.6c-0.1,0.9,0.6,1.8,1.6,1.9l1.7,0.1l-1.1,12.9c-0.7,0.1-1.2,0.6-1.3,1.3
		c-0.1,0.7,0.4,1.3,1.1,1.5l-2,24l-4.6-0.4c-1-0.1-2,0.7-2,1.7v0c-0.1,1,0.7,2,1.7,2l1.9,0.2l-1.2,14.2c-0.8,0.1-1.4,0.7-1.5,1.5
		c-0.1,0.8,0.4,1.5,1.2,1.7l-1.8,21.6h-6.9l0,0h-27v-3h-3.4c0,0,0-0.3,0-0.3c-2.2-7.9-7.1-12.5-14.1-13.7c5.3-9.3,6.4-23.2,3.2-41.4
		l-0.3-1.5c1.4,0.4,3.5,0.9,4.5,0.9l0.9,0l-0.2-0.8c0-0.2-3.6-14.9-5.3-21.4l6.1,3l-0.8-1.8c-1.3-2.8-3.3-7.7-3.3-8.9l-1.3-14.9
		l2.9,2.4l0.1-1.4c0.5-11.4-2-19.7-7.7-25.2c-0.8-0.8-1.6-1.4-2.4-2c1-1.4,0.7-3.8,0.7-4.1l-0.1-0.5l-4.8-0.6l-7.5,0.1
		c-1.4-0.3-2.8-0.6-4.1-0.8c-11.5-2-15.6,5.1-16.5,7c-4.9,0.6-6.6,4.2-7.2,6.6c-6.3,0.3-10.1,1.8-11.3,4.5c-1.2,2.6,0.6,5.4,1.2,6.2
		c0,0.7,0.3,2.7,1.7,4c0.5,0.5,1.1,0.8,1.8,1c0.2,0.8,0.6,2.2,1.5,3.2l0.7,0.7l0.5-0.8c0.6-1,2.4-3.7,3.9-4.1l0,0l1.8-0.5
		c0.6,0,3.6,0.4,3.6,3.1c0,0,0.2,2.5-3.3,3.5c-0.1,0-0.2,0-0.2,0.1c-0.8,0.2-1.5,0.4-2.2,0.5c-0.2,0-0.3,0.1-0.4,0.1
		c-0.2-0.6-0.4-1.6-0.5-2.5l-0.2-1.1l-0.9,0.6c-1.5,1-1.9,3.2-2.1,4.1c-0.9,0.5-1.4,1.3-1.3,2.4c0.3,2.6,1.9,4.8,4.2,5.8l-2.1,11.2
		c-0.5-0.1-1-0.2-1.5-0.1c-0.9-0.8-2.9-2.4-5-2.2c-1.5,0.1-2.8,1.1-3.9,2.8c-0.4,0.5-0.7,1.8,0.6,3c0.2,0.2,15.4,17.1,9.7,35.8
		c-0.2,0.8-4.8,14.7-2.4,24.5c-6.8,1.2-11.6,5.9-13.8,13.6c0,0,0,0,0,0.3h-3.3v3h-30v-31h-6.8l-4.5-11h3.3v-9h-9v-7.1
		c0.4-0.1,0.4-0.1,0.3-0.2l-1.8-3l1.1-5.4l-2.2-14.4l3.5-2.2l-3.9-45.3l2-2.3c0.1-0.1,0.1-0.2,0-0.3l-3.1-17.9
		c-0.1-11.9,5.3-24.9,5.3-24.9l3.4-1.7c0,0,0,0,0.1-0.1l0,0c3.7-5.8-3.4-16.8-4.4-18.3l0.2-4.2l1.9-2.7c0-0.1,0.7-0.2,0.7-0.2v-17.2
		l1-2v-2c0,0,1.3-0.4,1.5-1c0.1-0.3,0.1-0.7-0.1-1.1c-0.2-0.3-0.5-0.6-0.3-0.7V421h0c0.9,0,1.6-0.7,1.6-1.6c0-0.4-0.2-0.8-0.4-1.1
		c0.4-0.3,0.7-0.8,0.7-1.3c0-0.4-0.1-0.8-0.4-1.1c0.6-0.2,1-0.8,1-1.5c0-0.4-0.1-0.8-0.4-1.1c0.5-0.3,0.8-0.8,0.8-1.4
		c0-0.9-1.6-1-1.6-1h-2.2v-0.2c0.8-0.3,1.3-1,1.3-1.8l0.3-0.1c0.1-0.2,1.2-5,1.7-6.9h1.3c0.6,0,1-0.4,1-1c0-0.5-0.5-1-1-1h-2.3
		c5.4-10.4-4.9-17.3-4.2-16.1c0.7,1.3-1.2,6.5-4.4,9.5c-2.2,2.1-1.3,5-0.5,6.6h-2.3c-0.6,0-1,0.5-1,1c0,0.6,0.5,1,1,1h0.4
		c0.5,1.9,1.6,6.5,1.7,6.7c0.1,1,0.9,1.9,2,2v1.2c-3.6,2.4-3,7.3-3,7.3v7.2l-3.4,15.8c0,0-0.6,0.1-0.6,0.1v2.5l-7.4,3.4
		c-0.2-0.3-0.6-0.7-1.2-1.2c0,0-0.1-0.1-0.1-0.1c-0.1-0.1-0.2-0.2-0.4-0.3l4.8-11.1c0.1-0.2,0-0.4-0.2-0.5c-0.2-0.1-0.4-0.1-0.5,0.1
		l-7.3,9.7c-0.2-0.1-0.4-0.2-0.6-0.2c-0.5-0.2-1.1-0.3-1.6-0.4l-1.5-12.1c0-0.2-0.2-0.4-0.4-0.4s-0.4,0.2-0.4,0.4l-1.5,12.1
		c-0.5,0.1-1.1,0.2-1.6,0.4c-0.2,0.1-0.4,0.1-0.6,0.2l-7.3-9.7c-0.1-0.2-0.4-0.2-0.5-0.1c-0.2,0.1-0.3,0.3-0.2,0.5l4.8,11.1
		c-0.1,0.1-0.2,0.2-0.4,0.3c0,0-0.1,0.1-0.1,0.1l0,0c-0.6,0.5-1,0.9-1.2,1.2l-11.1-4.7c-0.2-0.1-0.4,0-0.5,0.2
		c-0.1,0.2-0.1,0.4,0.1,0.5l9.8,7.3c0,0.3-0.1,0.7-0.1,1c0,0,0,0.1,0,0.1c0.1,2,1.1,3.7,1.4,4.2c0,0.1,0,0.3-0.1,0.4
		c0,0.2-0.1,0.5-0.1,0.7l0,0l0,0c-0.1,1.3,0.2,2.3,0.8,3.3l-0.7,6.6c0,0.1,0,0.2,0.1,0.3l1,1.5l-1.7,5.7c-3.6,1.5-7.9,3.9-8.6,7l0,0
		c0,0.6-2.7,10.1-7.6,15.1l-4.6-7.3c-0.1-0.2-0.3-0.2-0.5-0.1l-12,6.1c0,0,0,0-0.1,0l0,0.1c0,0,0,0,0,0.1l0,0.1l0,0v2.3
		c0,0.1,0,0.2,0,0.2l2.4,3.9c0,0-2.5,3.2-2.4,3.4l7.2,9.5c0.1,0.1,0.2,0.2,0.3,0.2h2.9l4.6,7.4c0.1,0.1,0.3,0.6,0.3,0.6h1.6
		c0,0,0.1,0,0.1,0l0,0l2.6-1.7l-3.8,36.3l-1.8,11.3c0,0.1,0,0.2,0,0.3l2,3.8l1,8l1.8,6.6v8.6h-5v9h2.5l-4.5,11h-4v31h-24v-66h2v-1h3
		v-2h-1v-11.5l5-3.3v-1.6l2.4-4.6H1559v-7.1l3-3V546h-64v-2h3v-1h-2v-2h-5.8l0.4-5.5l-0.8-0.7c0.4-1.9-0.3-3.2-0.7-5
		s-0.2-1.2,0.7-0.5c0.9,0.6,1.3-0.4,1.1-1.7c-0.3-1.3,1.2-3.5-0.9-3.8c-2.1-0.3-3.8,5.4-4.6,7.1c-0.8,1.7-2.4,2.9-3.2,4
		c-0.7,1,0,4.9,0.1,6.2h-4.9c0.2-1.9,1-7.5,1-8.4c0-1-1.1-3-1.1-3l-0.6-4.7c0,0,0.7-1-0.2-1.4l0.2-1.3l-0.8,0.6l-0.7,0l-0.5-0.6
		l0.1,1.2c0,0-0.7,0.6-0.2,1.3l-0.5,1l0.3,3.5l-1.3,2.3v-1.5c0.4,0,0.3-0.2,0.3-0.5c0-0.4,0.7-1.3,0.7-1.3v0.6c0,0-1-1.4-1.1-1.5
		c-0.1-0.3-0.7-0.9-1.1-0.8c-0.4,0.1-0.5,1.4-0.5,1.4s-0.6-0.1-1.1-0.7c-0.5-0.5-0.1-0.7,0.3-1.6c0.3-1,0-2.2-0.7-2.3
		s-1.1,0.3-0.8,0.3V523h-1v-3.3c1.9-0.1,3.1-1.4,3.1-3c0-1.4-2.1-2.9-2.1-2.9v-0.4l1.3-0.7c0,0-0.3-0.5-0.1-0.7
		c0.3-0.3,1.7-1.7,1.7-1.7l-0.2-0.2l0.7-0.8l-0.2-0.4c0,0,0.3-0.8,0.3-1.1s-3.6,2.4-3.6,2.4l0.2,0.5c0,0-0.1,0.2-0.4,0.4
		c-0.3,0.2-0.4-0.8-0.4-0.8c0.3-0.5,0.2-0.8,0-1c-0.1-0.1-0.2-0.1-0.4-0.1s-0.3,0-0.4,0.1c-0.2,0.2-0.3,0.5,0,1c0,0-0.1,1-0.4,0.8
		c-0.3-0.2-0.4-0.4-0.4-0.4l0.2-0.5c0,0-3.7-2.7-3.6-2.4c0.1,0.3,0.3,1.1,0.3,1.1l-0.2,0.4l0.7,0.8l-0.2,0.2c0,0,1.4,1.4,1.7,1.7
		c0.3,0.3-0.1,0.7-0.1,0.7l1.1,0.7v0.4c0,0-1.9,1.5-1.9,2.9c0,1.6,1.2,2.8,2.9,3v3.1l-1.5,1.7l-1.1,2.1c-1.6,1.1-0.8,5-0.8,5
		l-1.2-2.4l0.3-3.5l-0.5-1c0.5-0.7-0.2-1.3-0.2-1.3l0.1-1.2l-0.5,0.6l-0.7,0l-0.8-0.6l0.2,1.3c-0.8,0.4-0.2,1.4-0.2,1.4l-0.6,4.7
		c0,0-1.1,2-1.1,3c0,0.9,1,8.4,1,8.4h-3.3c0,0,0.8-5.2,0.1-6.2c-0.8-1.1-2.4-2.3-3.2-4c-0.8-1.7-2.5-7.4-4.6-7.1
		c-2.1,0.3-0.6,2.6-0.9,3.8c-0.3,1.3,0.2,2.3,1.1,1.7c0.9-0.6,1.1-1.2,0.7,0.5c-0.4,1.7-1.1,3.1-0.7,5l-0.8,0.7l0.4,5.5h-7.2v2h-2v1
		h3v2h-65v1.9l3,3v7.1h-12.4l2.4,4.6v1.6l4.9,3.1l0.1,0.1V579h-2v2h3v1h2v66h-16.3l-31.7-51.3V591h2v-2h-2v-5h2v-3h-11
		c-0.7-1.6-5.5-13.6-10.7-37h2.7v-5h-3.8c-5.1-24.5-10.3-59.9-11.9-107h1.3l1.4-2h0.1v-12.9l-3.6-2.1h-1.7l-0.7-19h-1.8l-0.7,19
		h-1.9l-3.6,2.1V430h0.1l1.4,2h0.8c-1.6,47.1-6.8,82.5-11.9,107h-5.3v5h4.2c-5.2,23.4-10.2,35.4-10.8,37h-9.4v3h1v5h-1v3h2v4.4
		l-31.3,51.6H1205V522h-0.3l5.3-8.1V461h2v-7h-5.2l-8.1-20h-0.8v-18h-35v18h0.1l-8.3,20h-5.8v7h2v52.4l5,8.6h0v126h-40v-9.3
		l-4.5-3.6l-1-29.1h1.4c0.7-0.2,1.3-0.8,1.3-1.5c0-0.7-1.3-1.5-1.3-1.5h-1.5l-0.9-28h1.3c0,0,1.1-0.2,1.1-0.9s-1.1-1.1-1.1-1.1h-1.3
		l-1.1-32h0.8c0.5,0,1-0.4,1-1s-0.4-1-1-1h-0.9l-0.3-9h0.8c0,0,0.9-0.2,0.9-0.7s-0.9-1.3-0.9-1.3h-1.8c0-1.2-0.4-4.1-3.5-5.9
		c0,0-0.6-0.3-0.8-1.1h-1.9v-6h1v6h-0.5c-0.2,0.8-0.8,1.1-0.8,1.1c-3.1,1.8-3.5,4.7-3.5,5.9h-2.3c0,0-0.9,0.8-0.9,1.3
		s0.9,0.7,0.9,0.7h0.8l-0.3,9h-0.9c-0.6,0-1,0.4-1,1s0.4,1,1,1h0.8l-1.1,32h-1.3c0,0-1.1,0.5-1.1,1.1s1.1,0.9,1.1,0.9h1.3l-0.9,28
		h-1.5c0,0-1.3,0.8-1.3,1.5c0,0.7,1.3,1.5,1.3,1.5h1.5l-1,29.6c-0.3,0-0.4,0-0.4,0l-4.4,3.4h-37l-0.6-16h0.9c0,0,0.7,0.2,0.7-0.2
		c0-0.4-0.7-0.8-0.7-0.8h-0.9l-0.7-19h1.2c0,0,0.7,0.2,0.7-0.2c0-0.4-0.7-0.8-0.7-0.8h-1.3l-0.8-20h0.6c0.6,0,1-0.5,1-1s-0.5-1-1-1
		h-0.9v-6h0.8c0.3,0.4,0.6,0.1,0.6-0.2c0-0.3-0.6-0.8-0.6-0.8h-0.6c0,0-0.7-4.4-3.1-4.8V565h-1v3.2c0,0-3,4-3.1,4.8h-0.9
		c-0.3,0.2-0.6,0.5-0.6,0.8c0,0.3,0.3,0.6,0.6,0.2h1v6h-1c-0.5,0-1,0.5-1,1s0.5,1,1,1h0.2l-0.8,20h-1.3c0,0-0.7,0.4-0.7,0.8
		c0,0.4,0.7,0.2,0.7,0.2h1.2l-0.7,19h-0.9c0,0-0.7,0.4-0.7,0.8c0,0.4,0.7,0.2,0.7,0.2h0.9l-0.6,15h-5.1v-60h1v-13l0,0v-1h-1v-4h-1v4
		h-2v1h1v12.2l-4-1V560h1v-1h-2v-4h-1v4h-2v1h1v15.5l-4-0.9V563h1v-1h-1v-4h-1v4h-2v1h1v11h-3v-8h1v-2h-1.3c0-1.1,0-8.5-7.9-11h0.2
		v-2h-2v-8h-1v8h-2v2h0c-7.4,2.5-7.5,9.9-7.5,11H993v2h1v9h-3v-12.7c0,0,10.8-34.7-23.2-50.2l-3.8-4.1H963v-2h-3v-1.8
		c1.2-0.5,2.2-1.8,2.2-3.4c0-1.6-1-2.9-2.2-3.4v-2c0.8-0.5,1.5-1.5,1.5-2.6c0-1.2-0.7-2.2-1.5-2.6V489h-3v1.1
		c-0.6,0.5-1.3,1.5-1.3,2.6c0,1.2,0.7,2.2,1.3,2.6v2c-1,0.5-2.1,1.8-2.1,3.4c0,1.6,1,2.9,2.1,3.4v1.8h-3v2h-0.9l-3.8,4.1
		c-34,15.5-23.2,50.2-23.2,50.2V575h-3v-9h1v-2h-1.6c0-1.1,0-8.5-7.5-11h0v-2h-2v-8h-1v8h-2v2h0.2c-7.5,2.5-7.6,9.9-7.6,11H901v2h1
		v8h-3v-11h1v-1h-2v-4h-1v4h-1v1h1v11.9l-4,0.9V560h1v-1h-2v-4h-1v4h-1v1l0,0v16.1l-4,1V565h1v-1h-2v-4h-1v4h-1v1l0,0v13h1v60h-4.7
		l-0.6-15h0.7c0,0,0.7,0.2,0.7-0.2c0-0.4-0.7-0.8-0.7-0.8h-0.9l-0.7-19h1.2c0,0,0.7,0.2,0.7-0.2c0-0.4-0.7-0.8-0.7-0.8h-1.3l-0.8-20
		h0.1c0.5,0,1-0.5,1-1s-0.4-1-1-1h-1v-6h1.2c0.3,0.4,0.6,0.1,0.6-0.2c0-0.3-0.6-0.8-0.6-0.8h-0.9c0,0-0.6-4.2-3.3-4.8V565h-1v3.2
		c0,0-2.9,4-3,4.8h-0.6c-0.3,0.2-0.6,0.5-0.6,0.8c0,0.3,0.3,0.6,0.6,0.2h0.7v6h-0.9c-0.6,0-1,0.5-1,1s0.5,1,1,1h0.7l-0.8,20h-1.3
		c0,0-0.7,0.4-0.7,0.8c0,0.4,0.7,0.2,0.7,0.2h1.2l-0.7,19h-0.9c0,0-0.7,0.4-0.7,0.8c0,0.4,0.7,0.2,0.7,0.2h0.9l-0.6,16h-37l-4.4-3.4
		c0,0-0.1,0-0.4,0l-1-29.6h1.5c0,0,1.3-0.8,1.3-1.5c0-0.7-1.3-1.5-1.3-1.5h-1.5l-0.9-28h1.3c0,0,1.1-0.2,1.1-0.9s-1.1-1.1-1.1-1.1
		h-1.3l-1.1-32h0.8c0.6,0,1-0.4,1-1s-0.5-1-1-1h-0.9l-0.3-9h0.8c0,0,0.9-0.2,0.9-0.7s-0.9-1.3-0.9-1.3h-1.8c0-1.2-0.4-4.1-3.5-5.9
		c0,0-0.6-0.3-0.8-1.1H816v-6h-1v6h-0.5c-0.2,0.8-0.8,1.1-0.8,1.1c-3.1,1.8-3.5,4.7-3.5,5.9h-2c0,0-0.9,0.8-0.9,1.3s0.9,0.7,0.9,0.7
		h0.8l-0.3,9h-0.9c-0.6,0-1,0.4-1,1s0.4,1,1,1h0.8l-1.1,32h-1.3c0,0-1.1,0.5-1.1,1.1s1.1,0.9,1.1,0.9h1.3l-0.9,28h-1.5
		c0,0-1.3,0.8-1.3,1.5c0,0.7,1.3,1.5,1.3,1.5h1.5l-1,29.1l-4.6,3.6v9.4h-39v-25.4l-8.8-6.9l-0.2,0V609h-4v-39.9l1-2.1v-17.9l2-5.6
		v-63l13.8-4.7c0,0,9.7,2.6,14.3,1.3c4.6-1.3,12.3-14.7,12.3-14.7l3.8-0.3c1.4,0.5,6,0.6,6,0.6s8.2-1.2,9.2-1.2c1,0,1-1,1-1
		c2.1,0.1,1.7-1.3,1.7-1.3c0.5,0,1.3-0.2,1.4-0.8c0.1-0.6-1.4-0.8-1.4-0.8c0-1-1-1.1-1-1.1s-7.2-0.2-5.8-0.5
		c1.4-0.3,0.8-1.7,0.8-1.7s-5.2-0.4-7.1-0.3c-1.9,0.1-5.7,2.4-5.7,2.4l-2.1,0.2l0.3-1c0,0-23.8,0.3-25.3-1.6c-1.4-1.9-8.9-2-8.9-2
		l-15.9-4.3l-0.9,1l-4-1.3c0,0-1.2,0.3-1.3-12c-0.1-10.5-9.2-12.5-11-12.5v-0.5c0,0-0.6,0-0.6,0c0,0-0.4,0-0.4,0v0.6
		c-1.8,0.1-11,2-11.1,12.7c-0.1,12.4-1.3,12.1-1.3,12.1l-4.1,1.3l-0.9-1l-16.1,4.4c0,0-7.6,0.1-9,2.1c-1.4,1.9-25.6,1.6-25.6,1.6
		l0.3,1l-2.1-0.2c0,0-3.8-2.3-5.7-2.4c-2-0.1-7.2,0.3-7.2,0.3s-0.6,1.4,0.8,1.7c1.4,0.3-5.9,0.5-5.9,0.5s-1,0.1-1,1.1
		c0,0-1.5,0.2-1.4,0.8c0.1,0.6,0.9,0.9,1.4,0.8c0,0-0.4,1.4,1.7,1.3c0,0-0.1,1,1,1c1,0,9.3,1.2,9.3,1.2s4.7-0.1,6.1-0.6l3.9,0.3
		c0,0,7.8,13.5,12.4,14.9c4.6,1.3,14.4-1.3,14.4-1.3l14.2,4.8v32.1l0,0l0,1.6h1.1c0,0,0.4,4,2.7,6.1l-1.2,13.7l1.5,4.7l-2.4,69.5
		H697v6.7l-8,6.9V648h-63v15h1262v-15H1875z M1851.1,464.9c0.7-0.1,1.3-0.7,1.3-1.5c0.1-0.8-0.4-1.4-1.1-1.7l0.4-4.7
		c0.1-1.4,1.4-2.5,2.8-2.4c1.4,0.1,2.5,1.4,2.4,2.8l-0.4,4.7c-0.7,0.2-1.2,0.7-1.2,1.4c-0.1,0.7,0.4,1.4,1,1.6l-1.1,12.8l-5.3-0.4
		L1851.1,464.9z M1861.2,478.6l1.1-12.8c0.7-0.1,1.3-0.7,1.3-1.5c0.1-0.8-0.4-1.4-1.1-1.7l0.4-4.7c0.1-1.4,1.4-2.5,2.8-2.4
		s2.5,1.4,2.4,2.8l-0.4,4.7c-0.7,0.1-1.3,0.7-1.3,1.5c-0.1,0.8,0.4,1.4,1.1,1.7l-1.1,12.8L1861.2,478.6z M1840,464
		c0.8-0.1,1.4-0.7,1.5-1.5c0.1-0.8-0.5-1.5-1.2-1.7l0.4-4.7c0.1-1.4,1.4-2.5,2.8-2.4c1.4,0.1,2.5,1.4,2.4,2.8l-0.4,4.7
		c-0.7,0.2-1.2,0.7-1.2,1.4c-0.1,0.7,0.4,1.4,1,1.6l-1.1,12.8l-5.3-0.4L1840,464z M1841.9,496.1c0.5-0.2,0.9-0.7,1-1.3
		c0.1-0.6-0.3-1.1-0.8-1.4l0.4-5.3c0.1-1.7,1.6-3,3.4-2.8l0.2,0c1.7,0.1,3,1.6,2.8,3.4l-0.4,5.3c-0.5,0.2-1,0.7-1,1.3
		c-0.1,0.6,0.3,1.1,0.8,1.4l-2,23.6l-6.4-0.5L1841.9,496.1z M1847.8,564.7l2.1-24.9c0.6-0.1,1.1-0.7,1.1-1.3
		c0.1-0.6-0.3-1.2-0.9-1.5l0.4-5.3c0.1-1.7,1.6-3,3.4-2.8l0.2,0c1.7,0.1,3,1.6,2.8,3.4l-0.4,5.3c-0.5,0.2-0.9,0.7-1,1.3
		c-0.1,0.6,0.3,1.1,0.8,1.4l-2.1,24.9L1847.8,564.7z M1860.2,495c-0.5,0.2-0.9,0.7-1,1.3c-0.1,0.6,0.3,1.1,0.8,1.4l-2,23.6l-6.4-0.5
		l2-23.5c0.6-0.1,1.1-0.7,1.1-1.3c0.1-0.6-0.3-1.2-0.9-1.5l0.4-5.3c0.1-1.7,1.6-3,3.4-2.8l0.2,0c1.7,0.1,3,1.6,2.8,3.4L1860.2,495z
		 M1838.2,538.7c0.5-0.2,0.9-0.7,1-1.3c0.1-0.6-0.3-1.1-0.8-1.4l0.4-5.3c0.1-1.7,1.6-3,3.4-2.8l0.2,0c1.7,0.1,3,1.6,2.8,3.4
		l-0.4,5.3c-0.5,0.2-1,0.7-1,1.3c-0.1,0.6,0.3,1.1,0.8,1.4l-2.1,24.9l-6.4-0.5L1838.2,538.7z M1859.5,565.6l2.1-24.9
		c0.6-0.1,1.1-0.6,1.1-1.3c0.1-0.6-0.3-1.2-0.9-1.5l0.4-5.3c0.1-1.7,1.6-3,3.4-2.8l0.2,0c1.7,0.1,3,1.6,2.8,3.4l-0.4,5.2
		c-0.6,0.1-1.1,0.6-1.2,1.3c-0.1,0.7,0.4,1.3,1,1.5l-2.1,24.9L1859.5,565.6z M1863.2,521.7l2-23.5c0.6-0.1,1.1-0.6,1.1-1.3
		c0.1-0.6-0.3-1.2-0.9-1.5l0.4-5.3c0.1-1.7,1.6-3,3.4-2.8l0.2,0c1.7,0.1,3,1.6,2.8,3.4l-0.4,5.2c-0.6,0.1-1.1,0.6-1.2,1.3
		c-0.1,0.7,0.4,1.3,1,1.5l-2,23.5L1863.2,521.7z M1830.2,495.3c0.7,0,1.4-0.6,1.4-1.3c0.1-0.7-0.5-1.4-1.2-1.5l0.4-5.2
		c0.1-1.7,1.6-3,3.4-2.8l0.2,0c1.7,0.1,3,1.6,2.8,3.4l-0.4,5.3c-0.6,0.1-1.1,0.6-1.1,1.3c-0.1,0.6,0.3,1.2,0.9,1.5l-2,23.5l-6.4-0.5
		L1830.2,495.3z M1826.5,537.9c0.7,0,1.4-0.6,1.4-1.3c0.1-0.7-0.5-1.4-1.2-1.5l0.4-5.2c0.1-1.7,1.6-3,3.4-2.8l0.2,0
		c1.7,0.1,3,1.6,2.8,3.4l-0.4,5.3c-0.6,0.1-1.1,0.6-1.1,1.3c-0.1,0.6,0.3,1.2,0.9,1.5l-2.1,24.9l-6.4-0.5L1826.5,537.9z
		 M1834.5,582.7c0.5-0.2,0.9-0.7,1-1.3c0.1-0.6-0.3-1.1-0.8-1.4l0.4-5.3c0.1-1.7,1.6-3,3.4-2.8l0.2,0c1.7,0.1,3,1.6,2.8,3.4
		l-0.4,5.3c-0.5,0.2-1,0.7-1,1.3c-0.1,0.6,0.3,1.1,0.8,1.4l-2,24.1l-6.4-0.5L1834.5,582.7z M1852.9,581.6c-0.5,0.2-0.9,0.7-1,1.3
		c0,0.6,0.3,1.1,0.8,1.4l-2,24.1l-6.4-0.5l2-24.1c0.6-0.1,1.1-0.7,1.1-1.3s-0.3-1.2-0.9-1.5l0.4-5.3c0.1-1.7,1.6-3,3.4-2.8l0.2,0
		c1.7,0.1,3,1.6,2.8,3.4L1852.9,581.6z M1855.9,608.8l2-24.1c0.6-0.1,1.1-0.6,1.1-1.3c0.1-0.6-0.3-1.2-0.9-1.5l0.4-5.3
		c0.1-1.7,1.6-3,3.4-2.8l0.2,0c1.7,0.1,3,1.6,2.8,3.4l-0.4,5.2c-0.6,0.1-1.1,0.6-1.2,1.3c-0.1,0.7,0.4,1.3,1,1.5l-2,24.1
		L1855.9,608.8z M1822.8,581.8c0.7,0,1.4-0.6,1.4-1.3c0.1-0.7-0.5-1.4-1.2-1.5l0.4-5.2c0.1-1.7,1.6-3,3.4-2.8l0.2,0
		c1.7,0.1,3,1.6,2.8,3.4l-0.4,5.3c-0.6,0.1-1.1,0.6-1.1,1.3c-0.1,0.6,0.3,1.2,0.9,1.5l-2,24.1l-6.4-0.5L1822.8,581.8z M1725.6,613.3
		c1.8,0,3.2,1.5,3.2,3.2c0,1.8-1.5,3.2-3.2,3.2s-3.2-1.5-3.2-3.2C1722.3,614.8,1723.8,613.3,1725.6,613.3z M1720.1,526
		c-1.3,0-2.3-1.3-1.9-2.7c0.3-0.8,1.1-1.3,2-1.3h1c0.9,0,1.7,0.5,2,1.3c0.5,1.4-0.6,2.7-1.9,2.7H1720.1z M1472.3,514.7
		c0.4,0.2,0.7,0.5,0.9,0.9c-0.2,0.2-0.9,0.6-1.5,0.7C1471.7,515.6,1472.2,514.9,1472.3,514.7z M1473.1,517.9
		c-0.2,0.4-0.5,0.6-0.9,0.9c-0.2-0.3-0.5-0.9-0.7-1.5C1472.2,517.4,1472.9,517.7,1473.1,517.9z M1469.9,518.8
		c-0.4-0.2-0.7-0.5-0.9-0.9c0.3-0.2,0.9-0.5,1.5-0.7C1470.5,517.8,1470.1,518.5,1469.9,518.8z M1469.1,515.5
		c0.2-0.4,0.5-0.7,0.9-0.9c0.2,0.2,0.6,0.9,0.7,1.5C1470,516.1,1469.3,515.7,1469.1,515.5z M1191,420.2c0-1.6,1.7-2.8,3.5-2.1
		c0.9,0.3,1.5,1.3,1.5,2.3V431h-5V420.2z M1182,420.2c0-1.6,1.7-2.8,3.5-2.1c0.9,0.3,1.5,1.3,1.5,2.3V431h-5V420.2z M1173,420.2
		c0-1.6,1.7-2.8,3.5-2.1c0.9,0.3,1.5,1.3,1.5,2.3V431h-5V420.2z M1165,420.2c0-1.6,1.7-2.8,3.5-2.1c0.9,0.3,1.5,1.3,1.5,2.3V431h-5
		V420.2z M1156,508v-42h48v42H1156z M1201,555v3h-42v-3H1201z M1159,551v-26h2v26H1159z M1167,551v-26h2v26H1167z M1175,551v-26h2
		v26H1175z M1183,551v-26h2v26H1183z M1191,551v-26h2v26H1191z M1199,551v-26h2v26H1199z M1201,564v26h-2v-26H1201z M1193,564v26h-2
		v-26H1193z M1185,564v26h-2v-26H1185z M1177,564v26h-2v-26H1177z M1169,564v26h-2v-26H1169z M1161,564v26h-2v-26H1161z M1201,594v3
		h-42v-3H1201z M1201,603v26h-2v-26H1201z M1193,603v26h-2v-26H1193z M1185,603v26h-2v-26H1185z M1177,603v26h-2v-26H1177z
		 M1169,603v26h-2v-26H1169z M1161,603v26h-2v-26H1161z M1201,633v3h-42v-3H1201z M907,634v-11.9c-0.2-4.6,7.5-8.6,7.5-8.6
		s7.7,4,7.5,8.6V634H907z M995,634v-11.9c-0.2-4.6,7.5-8.6,7.5-8.6s7.7,4,7.5,8.6V634H995z M1104,533.4c0-0.8,0.7-1.4,1.5-1.4
		c0.8,0,1.5,0.6,1.5,1.4v4.6h-3V533.4z M1100,533.4c0-0.8,0.7-1.4,1.5-1.4c0.8,0,1.5,0.6,1.5,1.4v4.6h-3V533.4z M1097,533.4
		c0-0.8,0.7-1.4,1.5-1.4c0.8,0,1.5,0.6,1.5,1.4v4.6h-3V533.4z M1046,575.6c-0.2-0.3,0.1-0.6,0.6-0.6c0.4,0,0.8,0.3,1.4,0.6v2.4h-2
		V575.6z M1044.4,575c0.4,0,0.8,0.3,0.6,0.6v2.4h-2v-2.4C1043.6,575.3,1043.9,575,1044.4,575z M1041,575.6c0.5-0.3,0.8-0.6,1.3-0.6
		s0.8,0.3,0.7,0.6v2.4h-2V575.6z M1020,595.9c-0.1-5,4.8-8.6,4.8-8.6s4.3,4.4,4.2,8.8V607h-9V595.9z M1020,622.9
		c-0.1-5,4.8-8.6,4.8-8.6s4.3,4.4,4.2,8.8V634h-9V622.9z M1009,569.8c0-1.6,2.5-2.9,2.5-2.9s2.5,1.3,2.5,2.9v4.2h-5V569.8z
		 M1010,595.1V607h-15v-11.9c-0.2-4.6,7.5-8.6,7.5-8.6S1010.2,590.5,1010,595.1z M1002,569.8c0-1.6,2.5-2.9,2.5-2.9s2.5,1.3,2.5,2.9
		v4.2h-5V569.8z M995,569.8c0-1.6,2.5-2.9,2.5-2.9s2.5,1.3,2.5,2.9v4.2h-5V569.8z M942,597c-0.2-4.3,7-10.5,7-10.5l10-5.4l10,5.4
		c0,0,7.2,6.2,7,10.5v41h-34V597z M917,569.8c0-1.6,2.5-2.9,2.5-2.9s2.5,1.3,2.5,2.9v4.2h-5V569.8z M910,569.8
		c0-1.6,2.5-2.9,2.5-2.9s2.5,1.3,2.5,2.9v4.2h-5V569.8z M914.5,586.5c0,0,7.7,4,7.5,8.6V607h-15v-11.9
		C906.8,590.5,914.5,586.5,914.5,586.5z M904,569.8c0-1.6,2.5-2.9,2.5-2.9s2.5,1.3,2.5,2.9v4.2h-5V569.8z M888,596.1
		c-0.1-4.4,4.2-8.8,4.2-8.8s4.9,3.6,4.8,8.6V607h-9V596.1z M888,623.1c-0.1-4.4,4.2-8.8,4.2-8.8s4.9,3.6,4.8,8.6V634h-9V623.1z
		 M874,575.6c0.1-0.3,0.4-0.6,0.9-0.6c0.4,0,0.8,0.3,1.1,0.6v2.4h-2V575.6z M872,575.6c0-0.3,0.3-0.6,0.8-0.6c0.4,0,0.8,0.3,1.2,0.6
		v2.4h-2V575.6z M870,575.6c-0.2-0.3,0.1-0.6,0.6-0.6c0.4,0,0.8,0.3,1.4,0.6v2.4h-2V575.6z M818,533.4c0-0.8,0.7-1.4,1.5-1.4
		c0.8,0,1.5,0.6,1.5,1.4v4.6h-3V533.4z M814,533.4c0-0.8,0.7-1.4,1.5-1.4s1.5,0.6,1.5,1.4v4.6h-3V533.4z M810,533.4
		c0-0.8,0.7-1.4,1.5-1.4c0.8,0,1.5,0.6,1.5,1.4v4.6h-3V533.4z M745,570v36h-2v-36H745z M737,570h2v36h-2V570z M732,570h3v36h-3V570z
		 M726.6,570h2.4l-0.6,36H726L726.6,570z M721.9,570h2.3l-0.8,36h-2.3L721.9,570z M716.8,570h2.3l-1,36h-2.3L716.8,570z M711.7,570
		h2.3l-1.2,36h-2.3L711.7,570z M706.5,570h2.3l-1.4,36h-2.3L706.5,570z M1649,623h5v25h-5V623z M1635,623h5v25h-5V623z M1621,623h5
		v25h-5V623z M1607,623h5v25h-5V623z M1593,623h5v25h-5V623z M1528,582h2v-2h18v2h2v66h-22V582z M1494,582h2v-2h18v2h2v66h-22V582z
		 M1488.7,539.6c0.4-0.2,2.7-2.7,2.7-2.7l0.6,0.2l0,2.5l-0.6,1.2l0.4,0.2h-3.4C1488.4,540.3,1488.5,539.7,1488.7,539.6z M1461,582h2
		v-2h18v2h2v66h-22V582z M1453.5,536.9c0,0,2.4,2.6,2.7,2.7c0.2,0.1,0.2,0.7,0.3,1.4h-3.4l0.4-0.2l-0.6-1.2l0-2.5L1453.5,536.9z
		 M1427,582h2v-2h18v2h2v66h-22V582z M1394,582h2v-2h18v2h2v66h-22V582z M1330,584h2v4h-2V584z M1326,584h2v4h-2V584z M1322,584h2v4
		h-2V584z M1318,584h2v4h-2V584z M1314,584h2v4h-2V584z M1312.5,550c0.5,2.1,1,4.1,1.5,6h-3.5l-1.4-6H1312.5z M1312,584v4h-2v-4
		H1312z M1306.1,550l1.4,6h-5.1l-0.3-6H1306.1z M1308,584v4h-2v-4H1308z M1296.9,506.8c0.9,8.2,2.2,20.2,3.6,32.2h-7.2
		C1294.7,527,1296,515,1296.9,506.8z M1299.5,556h-5.3l0.3-6h4.7L1299.5,556z M1303.7,563c1.2,9.2,2.2,16.1,2.8,18h-19
		c0.6-1.9,1.6-8.8,2.8-18H1303.7z M1304,584v4h-2v-4H1304z M1300,584v4h-2v-4H1300z M1296,584v4h-2v-4H1296z M1292,584v4h-2v-4H1292
		z M1287.8,550h3.8l-0.3,6h-5L1287.8,550z M1286,584h2v4h-2V584z M1281.4,550h3.5l-1.4,6h-3.6C1280.4,554.1,1280.9,552.1,1281.4,550
		z M1284,584v4h-2v-4H1284z M1278,584h2v4h-2V584z M1274,584h2v4h-2V584z M1270,584h2v4h-2V584z M1266,584h2v4h-2V584z M1262,584h2
		v4h-2V584z M1256.1,648c3.9-15.4,14.9-27.2,28.3-32.9c8.5-3.6,18.2-3.6,26.8,0c13.4,5.7,24.4,17.5,28.3,32.9H1256.1z M1829.8,628.1
		c0.6-0.2,1-0.7,1.1-1.4c0.1-0.7-0.3-1.2-0.8-1.5l0.5-5.9c0.2-1.9,1.8-3.3,3.7-3.1l0.3,0c1.9,0.2,3.3,1.8,3.1,3.7l-0.5,5.9
		c-0.6,0.2-1.1,0.7-1.1,1.4c-0.1,0.7,0.3,1.3,0.9,1.6l-1.6,19.3h-7.2L1829.8,628.1z M1850.1,626.8c-0.6,0.2-1,0.7-1.1,1.4
		c-0.1,0.7,0.3,1.2,0.8,1.5l-1.5,18.2h-7.2l1.6-18.8c0.7-0.2,1.2-0.7,1.2-1.4v0c0.1-0.7-0.4-1.3-1-1.6l0.5-5.8
		c0.2-1.9,1.8-3.3,3.7-3.1l0.3,0c1.9,0.2,3.3,1.8,3.1,3.7L1850.1,626.8z M1854.2,648l1.5-17.7c0.7-0.2,1.2-0.7,1.3-1.4
		c0.1-0.7-0.4-1.4-1-1.6l0.5-5.8c0.2-1.9,1.8-3.3,3.7-3.1l0.3,0c1.9,0.2,3.3,1.8,3.1,3.7l-0.5,5.8c-0.7,0.1-1.3,0.7-1.3,1.4
		c-0.1,0.7,0.4,1.4,1.1,1.6l-1.4,17H1854.2z M1816.8,627.1c0.8,0,1.5-0.6,1.6-1.5c0.1-0.8-0.5-1.6-1.3-1.7l0.5-5.7
		c0.2-1.9,1.8-3.3,3.7-3.1l0.3,0c1.9,0.2,3.3,1.8,3.1,3.7l-0.5,5.8c-0.7,0.2-1.2,0.7-1.3,1.4l0,0c-0.1,0.7,0.4,1.4,1,1.6l-1.7,20.3
		h-7.2L1816.8,627.1z"/>
	<g>
		<path id="path3940" class="st0" d="M1923.8,320l-0.2,32.9l-1.3,0.5l-0.3,26.2c-2.4,1.9-5.9,3.8-1,5.7v37.3l-0.8,0.3v7l-5.2,0.3
			v4.7c-12.4,8.5-4.5,14.2-2.6,15.3c-4.1,2.2-3.4,4.3-0.6,6.5l6.5,0.2c-1.8,60.3-3.3,120.5-11.5,180.8h-2.5v5.5h2.1v4.8h36v-4.8h2.6
			v-5.5h-3c-8.2-60.3-9.7-120.5-11.5-180.8l6.5-0.2c2.8-2.2,3.6-4.3-0.5-6.5c1.9-1.1,9.8-6.8-2.6-15.3v-4.7l-5.2-0.3v-7l-0.8-0.3
			v-37.3c4.9-1.9,1.4-3.8-1-5.7l-0.3-26.2l-1.3-0.5l-0.3-32.9h-0.5h-0.3L1923.8,320L1923.8,320z"/>
	</g>
	<path id="path3961" class="st0" d="M1989.1,338.9v33.2h-2.7v9.7c-5.6,0.8-6.6,4.1-7.2,7.7v14.1h-4.2v18h-2.7v24.8h-1.2v36h-2.4V634
		h-1.8v15h124v-15h-3V482.4h-2.1v-36h-1.5v-24.8h-1.8v-18h-4.5v-14.1c0.2-4.1-2.2-7.1-6.1-7.6l-0.2-9.8h-3.6v-33.2h-0.6v33.2h-2.7
		v9.7c-5.6,0.8-6.6,4.1-7.2,7.7v14.1h-4.2v18h-2.7v24.8h-1.2v36h-2.4v46.7h-37.7v-46.7h-2.1v-36h-1.5v-24.8h-1.8v-18h-4.5v-14.1
		c0.2-4.1-2.2-7.1-6.1-7.6l-0.2-9.8h-3.6v-33.2H1989.1L1989.1,338.9z M2009.6,539.3h17.9l-17.9,31.5V539.3z M2028.8,539.3h0.5
		l18,31.9v55h-37.7v-52.9L2028.8,539.3z M2030.6,539.3h16.7v29.4L2030.6,539.3z"/>
	<rect x="173" y="648" class="st0" width="454" height="15"/>
	<rect x="1876" y="648" class="st0" width="333" height="15"/>
	<path id="path3164" class="st0" d="M624.8,301v29.8l-1.5,1.2v25.5l-1.1,1.3l-0.3,24.6l-2,2.3V410l-0.9,1.9l-0.3,69.6l-3.8,0.9
		l-0.3,50.2l-3.5,1.3v46.7l-2.1,0.4l-0.3,32.7l-2.9,0.5v19.3h-3.2v4.3h-2.7v3.2h-8.5v8h67.2v-8h-6.7v-3.2h-4.3v-3.8l-2.8-0.1
		l-0.4-28.8l-2.9-0.3l0.4-38.6l-3.1-0.7l-0.3-47.6l-2.7-0.7l-0.5-53.9l-2.1-2.9c0-41.5,0-25.2,0-39.3l-2.4-3.9l-0.3-0.1h0.4v-15.1
		l-1.6-1.5l-0.3-14.4h-0.4v-18.2l-1.5-2.7l-0.4,1.2h0.4v-24.6l-1.4-1.2l-0.1-8.3v-31H624.8L624.8,301z"/>
	<path class="st0" d="M602.8,626.3V625c1.8,0.2,3.5,0.3,5.2,0.3v-7.1c-27.7-0.3-60.2-19-81.9-44.6v-8.2h0.9v-0.9h-0.9v-8.7h0.9v-0.4
		l-1.1-0.5l-2.5-10.5h0c0,0,1.1,0.1,1.1-0.5c0-0.6-0.4-1-1.9-1V541h0.9v1.7c-0.5,0.1-1,0.5-1,1c0,0.6,0.5,1,1.1,1l-2.3,8.1l-1.3-4.9
		h0c0.6,0,1.1-0.5,1.1-1c0-0.6-0.5-1-1.1-1v-2.3l0,0v2.4c-0.6,0.1-1,0.5-1,1c0,0.6,0.5,1,1.1,1l-1.5,5.3l-3.8-14.2
		c0.6-0.1,1.1-0.4,1.1-0.6c0-0.3-0.6-0.6-1.4-0.7l0-0.1c0.4-0.2,0.6-0.5,0.6-0.9c0-0.6-0.5-1-1.1-1V534h0.9v2.1c0,0-1.9,0.5-1.9,1
		c0,0.4,0.3,0.8,0.6,1l0,0.1c-0.8,0.1-1.3,0.4-1.3,0.7c0,0.3,0.4,0.5,1,0.6l-3.7,13.6l-1.9-7.9h0c0.6,0.2,1.1-0.2,1.1-0.9
		c0-0.6-0.4-1-0.9-1V541l0,0v2.5c-0.8,0.1-1.3,0.5-1.3,1c0,0.6,0.4,1,1,1l-1.8,6.8l-1-4.4h0c0.6,0.5,1.1,0,1.1-0.6
		c0-0.6-1.5-1-1.5-1v-2.7l0,0v2.7c-0.2,0.1-0.6,0.5-0.6,1c0,0.6,0.4,1,1,1l-2.7,10h-0.3v0.9h0.9v0.9h-0.9v0.9h0.9v6.1h-47.4
		c-0.1-0.5-0.3-0.9-0.5-1.2v-2.3h-0.9v1.7c-1-0.5-2.2-0.3-2.8-1c-1.1-1.5-1-1.7-1-1.7s-0.9,1.4-1.4,1.8c-0.7,0.6-1.8,0.6-2.7,1v-1.8
		l0,0v2.3c-0.3,0.2-0.5,1.2-0.5,1.2h-46.5V561h0.9v-0.9h-0.9v-0.9h0.9v-0.9h-0.3l-2.7-10c0.6,0,1-0.5,1-1c0-0.6-1.5-1-1.5-1v-2.7
		h0.9v2.7c-1,0-1.4,0.5-1.4,1c0,0.6,1.1,0.6,1.1,0.6h0l-1,4.4l-1.8-6.8c0.6,0,1-0.5,1-1c0-0.6-0.4-1-1.3-1V541h0.9v2.4
		c0,0-1.6,0.5-1.6,1c0,0.6,0.5,1.1,1.1,0.9h0l-1.9,7.8l-3.7-13.6c0.6-0.1,1-0.4,1-0.6c0-0.3-0.6-0.6-1.3-0.7l0-0.1
		c0.4-0.2,0.6-0.5,0.6-1c0-0.6-0.4-1-1.1-1V534l0,0v2c-0.6,0-1.1,0.5-1.1,1c0,0.4,0.2,0.8,0.6,0.9l0,0.1c-0.8,0.1-1.4,0.4-1.4,0.7
		c0,0.3,0.4,0.5,1.1,0.6l-3.8,13.7l-1.5-5.2c0.6,0,1-0.5,1-1c0-0.5-0.4-1-1-1v-2.3l0,0v2.3c-0.6,0-1.1,0.5-1.1,1c0,0.6,0.5,1,1.1,1
		h0l-1.3,4.9l-2.3-8.1c0.6,0,1.1-0.5,1.1-1s-0.4-1-1-1V541h0.9v1.9c-1.4,0-1.9,0.5-1.9,1c0,0.6,1.1,0.5,1.1,0.5h0l-2.5,10.5
		l-1.1,0.5v0.4h0.9v8.7h-0.9v0.9h0.9v8.3c-21.7,25.6-54.2,44.3-81.9,44.6v7c1.7,0,3.5-0.1,5.2-0.3v0.5h-5.2v4.4h74.9V649h38.3v-17.3
		c4.4-5,12.2-11.4,17.5-16c6-5.1,19.9-15.1,19.9-15.1l-2.9-4.2l-42.4,26.4v-15.7h0.9v-0.9h-0.9v-1.7h0.9v-0.9h-0.9v-9.6h0.9v-0.9
		h-0.9v-2.6l0,0v0.9l0,0v-4.2l0,0v-3.9v-1.5h0.9V581h-0.9v-1.7h0.9v-0.9h-0.9v-1.7h102.8v1.7h0.9v0.9h-0.9v1.7h0.9v0.9h-0.9v1.5
		l0.9,3.9l0,0v3.3h-0.9v0.9h0.9v1.7h-0.9v0.9h0.9v9.6h-0.9v0.9h0.9v1.7h-0.9v0.9h0.9v15.6l-42.4-26.4l-2.9,4.2
		c0,0,13.9,10,19.9,15.1c5.3,4.5,13.2,10.9,17.5,16V649h38.3v-19.2H608v-4.4l-5.3,0.9H602.8z M310.9,625.5h-11.3v-0.9
		c3.7-0.4,7.5-1,11.3-2V625.5z M321.4,625.5h-10.5v-3c3.5-0.9,7-2,10.5-3.3C321.4,619.2,321.4,625.5,321.4,625.5z M331,625.5h-9.6
		v-6.4c3.2-1.2,6.4-2.5,9.6-4L331,625.5L331,625.5z M339.7,625.5H331V615c2.9-1.4,5.8-2.9,8.7-4.5V625.5L339.7,625.5z M348.4,625.5
		h-8.7v-15c2.9-1.7,5.9-3.5,8.7-5.5V625.5z M357.1,625.5h-8.7v-20.6c3-2,5.9-4.2,8.7-6.5V625.5z M364.9,625.5h-7.8v-27.2
		c2.7-2.1,5.3-4.4,7.8-6.7V625.5z M376.3,588h-0.9v0.9h0.9v2.6h-0.9v0.9h0.9v10.5h-0.9v0.9h0.9v1.7h-0.9v0.9h0.9v9.2l-0.9,0.2v2.8
		h-0.9v0.9l0,0v1.7l0.9,0.4v3.2h-7v1.7h-3.5v-35c3.8-3.8,7.5-7.8,10.8-11.9l0.5,4.7V588z M536.6,626.3h-3.5v-1.7h-7v-3.1l0.9-0.4
		v-1.7l0,0v-0.9h-0.9v-2.8l-0.9-0.2v-9.2h0.9v-0.9h-0.9v-1.7h0.9v-0.9h-0.9v-10.5h0.9v-0.9h-0.9V588h0.9v0.9h-0.9V585l0.5-4.6
		c3.4,4.1,7,8,10.8,11.7V626.3L536.6,626.3z M544.4,625.5h-7.8v-33.9c2.5,2.3,5.2,4.6,7.8,6.7V625.5z M553.1,625.5h-8.7v-27.1
		c2.8,2.3,5.7,4.4,8.7,6.5L553.1,625.5L553.1,625.5z M561.8,625.5h-8.7V605c2.9,1.9,5.8,3.8,8.7,5.5V625.5z M570.5,625.5h-8.7v-14.9
		c2.9,1.6,5.8,3.1,8.7,4.5V625.5z M580.1,625.5h-9.6v-10.4c3.2,1.5,6.4,2.9,9.6,4V625.5z M590.6,625.5h-10.5v-6.3
		c3.5,1.3,7,2.4,10.5,3.3V625.5z M601.9,625.5h-11.3v-2.9c3.8,1,7.6,1.7,11.3,2V625.5z"/>
	<path id="path3959" class="st0" d="M270.9,361.7v23.1h-1h-2l-0.2,9.9H263l-0.2,1.8l1.6,0.3l0.2,4.8c-0.3,3.1,0.6,3.7,1.2,5
		l-0.2,6.6l-4.1,11.2l4.8,0.4h-10.8v2.6l-1,0v0.1l-4.5,0.2l0.5,1.5h1.2l1.8,11.6l1.1,0.2l0,7l-4.6,0.2l0.5,1.5h1.2l1.8,11.6l1.1,0.2
		v5l-4.6,0.2l0.5,1.5h1.2l1.8,11.6l1.2,0.2v6l-4.7,0.2l0.5,1.5h1.2l1.8,11.6l1.3,0.2l0,4.7l-4.8,0.2l0.5,1.5h1.2l1.8,11.6l1.3,0.2
		v5.7l-4.8,0.2l0.5,1.5h1.2l1.8,11.6l1.4,0.2l0,5.1l-4.9,0.2l0.5,1.5h1.2l1.8,11.6l1.5,0.2l0,6.7l-5,0.2l0.5,1.5h1.2l1.8,11.6
		l1.5,0.2v2.8l-8,73.4h17.6h14.6h17.6l-8-73.4v-2.8l1.5-0.2L292,563h1.2l0.5-1.5l-5-0.2l0-6.7l1.5-0.2l1.8-11.6h1.2l0.5-1.5
		l-4.9-0.2l0-5.1l1.4-0.2l1.8-11.6h1.2l0.5-1.5l-4.8-0.2v-5.7l1.3-0.2l1.8-11.6h1.2l0.5-1.5l-4.8-0.2l0-4.7l1.3-0.2l1.8-11.6h1.2
		l0.5-1.5l-4.7-0.2v-6l1.2-0.2l1.8-11.6h1.2l0.5-1.5l-4.6-0.2v-5l1.1-0.2l1.8-11.6h1.2l0.5-1.5l-4.6-0.2l0-7l1.1-0.2L292,429h1.2
		l0.5-1.5l-4.5-0.2v-0.1l-1,0v-2.6h-10.8l4.8-0.4l-4.1-11.2l-0.2-6.6c0.6-1.3,1.5-1.9,1.2-5l0.2-4.8l1.6-0.3l-0.2-1.8H276l-0.2-9.9
		h-2h-1.2v-23.1L270.9,361.7L270.9,361.7z"/>
</g>
</svg>
